<svg width="46" height="15" viewBox="0 0 46 15" fill="none" xmlns="http://www.w3.org/2000/svg">
<path d="M34.5 11C34.2103 11 34 11.2102 34 11.5C34 11.7897 34.2103 12 34.5 12C34.7898 12 35 11.7897 35 11.5C35 11.2102 34.7898 11 34.5 11ZM34.5 11.7426C34.3569 11.7426 34.2569 11.6428 34.2569 11.5C34.2569 11.3571 34.3569 11.2573 34.5 11.2573C34.6432 11.2573 34.7432 11.3571 34.7432 11.5C34.7432 11.6428 34.6432 11.7426 34.5 11.7426Z" fill="#DB4437"/>
<path d="M4.692 7.386C4.512 7.154 4.314 6.992 4.098 6.9C3.882 6.808 3.648 6.762 3.396 6.762C2.892 6.762 2.498 6.948 2.214 7.32C1.93 7.688 1.788 8.234 1.788 8.958C1.788 9.334 1.82 9.656 1.884 9.924C1.948 10.188 2.04 10.404 2.16 10.572C2.28 10.74 2.426 10.862 2.598 10.938C2.77 11.014 2.964 11.052 3.18 11.052C3.508 11.052 3.79 10.982 4.026 10.842C4.266 10.698 4.488 10.496 4.692 10.236V7.386ZM5.982 3.12V12H5.202C5.03 12 4.92 11.918 4.872 11.754L4.758 11.088C4.502 11.388 4.21 11.63 3.882 11.814C3.558 11.998 3.18 12.09 2.748 12.09C2.404 12.09 2.092 12.022 1.812 11.886C1.532 11.746 1.292 11.544 1.092 11.28C0.892 11.016 0.736 10.69 0.624 10.302C0.516 9.91 0.462 9.462 0.462 8.958C0.462 8.502 0.522 8.08 0.642 7.692C0.766 7.304 0.942 6.968 1.17 6.684C1.398 6.396 1.674 6.172 1.998 6.012C2.326 5.848 2.692 5.766 3.096 5.766C3.456 5.766 3.762 5.824 4.014 5.94C4.266 6.052 4.492 6.21 4.692 6.414V3.12H5.982Z" fill="black"/>
<path d="M9.432 5.784C9.884 5.784 10.292 5.858 10.656 6.006C11.024 6.154 11.336 6.364 11.592 6.636C11.852 6.908 12.052 7.238 12.192 7.626C12.332 8.014 12.402 8.45 12.402 8.934C12.402 9.418 12.332 9.854 12.192 10.242C12.052 10.63 11.852 10.962 11.592 11.238C11.336 11.51 11.024 11.72 10.656 11.868C10.292 12.016 9.884 12.09 9.432 12.09C8.976 12.09 8.564 12.016 8.196 11.868C7.832 11.72 7.52 11.51 7.26 11.238C7 10.962 6.8 10.63 6.66 10.242C6.52 9.854 6.45 9.418 6.45 8.934C6.45 8.45 6.52 8.014 6.66 7.626C6.8 7.238 7 6.908 7.26 6.636C7.52 6.364 7.832 6.154 8.196 6.006C8.564 5.858 8.976 5.784 9.432 5.784ZM9.432 11.082C9.984 11.082 10.394 10.898 10.662 10.53C10.934 10.158 11.07 9.628 11.07 8.94C11.07 8.252 10.934 7.722 10.662 7.35C10.394 6.974 9.984 6.786 9.432 6.786C8.872 6.786 8.456 6.974 8.184 7.35C7.912 7.722 7.776 8.252 7.776 8.94C7.776 9.628 7.912 10.158 8.184 10.53C8.456 10.898 8.872 11.082 9.432 11.082Z" fill="black"/>
<path d="M13.992 6.69C14.124 6.554 14.26 6.432 14.4 6.324C14.544 6.212 14.696 6.116 14.856 6.036C15.016 5.956 15.186 5.894 15.366 5.85C15.546 5.806 15.742 5.784 15.954 5.784C16.29 5.784 16.584 5.84 16.836 5.952C17.092 6.064 17.306 6.222 17.478 6.426C17.654 6.63 17.786 6.876 17.874 7.164C17.962 7.448 18.006 7.762 18.006 8.106V12H16.722V8.106C16.722 7.694 16.626 7.374 16.434 7.146C16.246 6.918 15.958 6.804 15.57 6.804C15.282 6.804 15.014 6.87 14.766 7.002C14.522 7.134 14.292 7.314 14.076 7.542V12H12.786V5.88H13.566C13.742 5.88 13.854 5.962 13.902 6.126L13.992 6.69Z" fill="black"/>
<path d="M22.056 9.324C21.596 9.34 21.208 9.378 20.892 9.438C20.576 9.494 20.32 9.568 20.124 9.66C19.928 9.748 19.786 9.854 19.698 9.978C19.614 10.102 19.572 10.238 19.572 10.386C19.572 10.53 19.594 10.654 19.638 10.758C19.686 10.858 19.75 10.942 19.83 11.01C19.914 11.074 20.01 11.122 20.118 11.154C20.23 11.182 20.352 11.196 20.484 11.196C20.82 11.196 21.108 11.134 21.348 11.01C21.592 10.882 21.828 10.698 22.056 10.458V9.324ZM18.636 6.732C19.328 6.088 20.152 5.766 21.108 5.766C21.46 5.766 21.772 5.824 22.044 5.94C22.32 6.052 22.55 6.212 22.734 6.42C22.922 6.628 23.064 6.876 23.16 7.164C23.26 7.448 23.31 7.764 23.31 8.112V12H22.734C22.61 12 22.516 11.982 22.452 11.946C22.388 11.906 22.334 11.828 22.29 11.712L22.164 11.214C22.008 11.354 21.854 11.48 21.702 11.592C21.55 11.7 21.392 11.792 21.228 11.868C21.068 11.944 20.894 12 20.706 12.036C20.522 12.076 20.318 12.096 20.094 12.096C19.846 12.096 19.614 12.062 19.398 11.994C19.186 11.926 19.002 11.824 18.846 11.688C18.69 11.548 18.566 11.376 18.474 11.172C18.386 10.968 18.342 10.728 18.342 10.452C18.342 10.216 18.404 9.986 18.528 9.762C18.656 9.538 18.864 9.338 19.152 9.162C19.444 8.982 19.826 8.834 20.298 8.718C20.774 8.602 21.36 8.536 22.056 8.52V8.112C22.056 7.672 21.962 7.344 21.774 7.128C21.586 6.912 21.31 6.804 20.946 6.804C20.698 6.804 20.49 6.836 20.322 6.9C20.154 6.96 20.008 7.026 19.884 7.098C19.76 7.17 19.65 7.238 19.554 7.302C19.458 7.362 19.356 7.392 19.248 7.392C19.16 7.392 19.084 7.37 19.02 7.326C18.96 7.278 18.91 7.22 18.87 7.152L18.636 6.732Z" fill="black"/>
<path d="M25.748 12.096C25.24 12.096 24.848 11.954 24.572 11.67C24.3 11.382 24.164 10.978 24.164 10.458V6.894H23.492C23.42 6.894 23.358 6.872 23.306 6.828C23.254 6.78 23.228 6.71 23.228 6.618V6.096L24.218 5.952L24.5 4.182C24.52 4.114 24.554 4.06 24.602 4.02C24.65 3.976 24.714 3.954 24.794 3.954H25.454V5.964H27.152V6.894H25.454V10.368C25.454 10.588 25.508 10.756 25.616 10.872C25.724 10.988 25.868 11.046 26.048 11.046C26.148 11.046 26.234 11.034 26.306 11.01C26.378 10.982 26.44 10.954 26.492 10.926C26.544 10.894 26.588 10.866 26.624 10.842C26.664 10.814 26.702 10.8 26.738 10.8C26.81 10.8 26.868 10.84 26.912 10.92L27.296 11.55C27.096 11.726 26.86 11.862 26.588 11.958C26.316 12.05 26.036 12.096 25.748 12.096Z" fill="black"/>
<path d="M31.8 8.25C31.8 8.034 31.768 7.834 31.704 7.65C31.644 7.462 31.554 7.3 31.434 7.164C31.314 7.024 31.164 6.916 30.984 6.84C30.808 6.76 30.604 6.72 30.372 6.72C29.904 6.72 29.536 6.854 29.268 7.122C29 7.39 28.83 7.766 28.758 8.25H31.8ZM28.722 9.042C28.738 9.39 28.792 9.692 28.884 9.948C28.976 10.2 29.098 10.41 29.25 10.578C29.406 10.746 29.59 10.872 29.802 10.956C30.018 11.036 30.258 11.076 30.522 11.076C30.774 11.076 30.992 11.048 31.176 10.992C31.36 10.932 31.52 10.868 31.656 10.8C31.792 10.728 31.908 10.664 32.004 10.608C32.1 10.548 32.188 10.518 32.268 10.518C32.372 10.518 32.452 10.558 32.508 10.638L32.874 11.112C32.722 11.292 32.55 11.444 32.358 11.568C32.166 11.692 31.962 11.794 31.746 11.874C31.53 11.95 31.308 12.004 31.08 12.036C30.852 12.072 30.63 12.09 30.414 12.09C29.99 12.09 29.596 12.02 29.232 11.88C28.872 11.736 28.558 11.526 28.29 11.25C28.026 10.974 27.818 10.632 27.666 10.224C27.518 9.816 27.444 9.346 27.444 8.814C27.444 8.39 27.51 7.994 27.642 7.626C27.778 7.258 27.97 6.938 28.218 6.666C28.47 6.394 28.774 6.18 29.13 6.024C29.49 5.864 29.896 5.784 30.348 5.784C30.724 5.784 31.072 5.846 31.392 5.97C31.712 6.09 31.988 6.268 32.22 6.504C32.452 6.74 32.632 7.03 32.76 7.374C32.892 7.714 32.958 8.102 32.958 8.538C32.958 8.738 32.936 8.872 32.892 8.94C32.848 9.008 32.768 9.042 32.652 9.042H28.722Z" fill="black"/>
<path d="M36.2 12V6.906L35.6 6.822C35.5 6.802 35.418 6.766 35.354 6.714C35.294 6.662 35.264 6.588 35.264 6.492V5.964H36.2V5.448C36.2 5.1 36.25 4.788 36.35 4.512C36.454 4.236 36.6 4.002 36.788 3.81C36.98 3.618 37.212 3.472 37.484 3.372C37.756 3.268 38.062 3.216 38.402 3.216C38.542 3.216 38.674 3.226 38.798 3.246C38.926 3.266 39.05 3.296 39.17 3.336L39.146 3.984C39.138 4.092 39.084 4.156 38.984 4.176C38.888 4.196 38.766 4.206 38.618 4.206C38.438 4.206 38.276 4.228 38.132 4.272C37.988 4.312 37.864 4.382 37.76 4.482C37.66 4.582 37.582 4.714 37.526 4.878C37.474 5.042 37.448 5.246 37.448 5.49V5.964H39.122V6.894H37.49V12H36.2ZM45.4699 5.88L42.0979 13.74C42.0539 13.832 41.9999 13.904 41.9359 13.956C41.8759 14.008 41.7819 14.034 41.6539 14.034H40.6999L41.8279 11.586L39.3319 5.88H40.4539C40.5619 5.88 40.6439 5.906 40.6999 5.958C40.7599 6.006 40.8039 6.064 40.8319 6.132L42.2899 9.606C42.3259 9.706 42.3579 9.806 42.3859 9.906C42.4179 10.002 42.4479 10.102 42.4759 10.206C42.5079 10.102 42.5399 10 42.5719 9.9C42.6039 9.8 42.6399 9.7 42.6799 9.6L44.0779 6.132C44.1059 6.06 44.1519 6 44.2159 5.952C44.2839 5.904 44.3579 5.88 44.4379 5.88H45.4699Z" fill="#DB4437"/>
</svg>
